<svg id="visual" viewBox="0 0 900 600" width="900" height="600" xmlns="http://www.w3.org/2000/svg" xmlns:xlink="http://www.w3.org/1999/xlink" version="1.1"><g stroke-width="1" stroke-linejoin="bevel"><path d="M468 266L413 234L391 337Z" fill="#19435d" stroke="#19435d"></path><path d="M413 234L300 288L391 337Z" fill="#297ea6" stroke="#297ea6"></path><path d="M468 266L525 190L413 234Z" fill="#081a28" stroke="#081a28"></path><path d="M275 433L364 432L391 337Z" fill="#00101c" stroke="#00101c"></path><path d="M391 337L502 436L468 266Z" fill="#277297" stroke="#277297"></path><path d="M468 266L577 203L525 190Z" fill="#246688" stroke="#246688"></path><path d="M405 93L316 173L413 234Z" fill="#15384f" stroke="#15384f"></path><path d="M413 234L316 173L300 288Z" fill="#081a28" stroke="#081a28"></path><path d="M364 432L502 436L391 337Z" fill="#00101c" stroke="#00101c"></path><path d="M603 319L577 203L468 266Z" fill="#0c2435" stroke="#0c2435"></path><path d="M502 436L603 319L468 266Z" fill="#112e42" stroke="#112e42"></path><path d="M492 105L413 234L525 190Z" fill="#205a7a" stroke="#205a7a"></path><path d="M492 105L405 93L413 234Z" fill="#297ea6" stroke="#297ea6"></path><path d="M628 100L492 105L525 190Z" fill="#246688" stroke="#246688"></path><path d="M405 93L285 137L316 173Z" fill="#277297" stroke="#277297"></path><path d="M316 173L207 274L300 288Z" fill="#081a28" stroke="#081a28"></path><path d="M300 288L275 433L391 337Z" fill="#205a7a" stroke="#205a7a"></path><path d="M392 526L500 499L502 436Z" fill="#1d4e6b" stroke="#1d4e6b"></path><path d="M213 415L275 433L300 288Z" fill="#1d4e6b" stroke="#1d4e6b"></path><path d="M199 180L207 274L316 173Z" fill="#246688" stroke="#246688"></path><path d="M392 526L502 436L364 432Z" fill="#205a7a" stroke="#205a7a"></path><path d="M502 436L633 383L603 319Z" fill="#277297" stroke="#277297"></path><path d="M213 415L273 468L275 433Z" fill="#15384f" stroke="#15384f"></path><path d="M275 433L273 468L364 432Z" fill="#112e42" stroke="#112e42"></path><path d="M587 471L633 383L502 436Z" fill="#081a28" stroke="#081a28"></path><path d="M717 193L628 100L577 203Z" fill="#277297" stroke="#277297"></path><path d="M273 468L392 526L364 432Z" fill="#081a28" stroke="#081a28"></path><path d="M207 274L213 415L300 288Z" fill="#081a28" stroke="#081a28"></path><path d="M285 137L199 180L316 173Z" fill="#297ea6" stroke="#297ea6"></path><path d="M111 492L190 513L213 415Z" fill="#205a7a" stroke="#205a7a"></path><path d="M500 499L587 471L502 436Z" fill="#0c2435" stroke="#0c2435"></path><path d="M717 193L577 203L603 319Z" fill="#0c2435" stroke="#0c2435"></path><path d="M577 203L628 100L525 190Z" fill="#205a7a" stroke="#205a7a"></path><path d="M492 105L419 0L405 93Z" fill="#15384f" stroke="#15384f"></path><path d="M526 0L419 0L492 105Z" fill="#112e42" stroke="#112e42"></path><path d="M405 93L278 0L285 137Z" fill="#277297" stroke="#277297"></path><path d="M285 137L178 112L199 180Z" fill="#297ea6" stroke="#297ea6"></path><path d="M278 0L178 112L285 137Z" fill="#00101c" stroke="#00101c"></path><path d="M199 180L118 173L207 274Z" fill="#15384f" stroke="#15384f"></path><path d="M587 471L666 471L633 383Z" fill="#112e42" stroke="#112e42"></path><path d="M633 383L725 321L603 319Z" fill="#112e42" stroke="#112e42"></path><path d="M632 600L666 471L587 471Z" fill="#112e42" stroke="#112e42"></path><path d="M632 600L587 471L500 499Z" fill="#277297" stroke="#277297"></path><path d="M573 0L526 0L492 105Z" fill="#15384f" stroke="#15384f"></path><path d="M762 375L725 321L633 383Z" fill="#297ea6" stroke="#297ea6"></path><path d="M725 321L717 193L603 319Z" fill="#00101c" stroke="#00101c"></path><path d="M262 600L392 526L273 468Z" fill="#246688" stroke="#246688"></path><path d="M262 600L367 600L392 526Z" fill="#205a7a" stroke="#205a7a"></path><path d="M392 526L490 600L500 499Z" fill="#1d4e6b" stroke="#1d4e6b"></path><path d="M367 600L490 600L392 526Z" fill="#277297" stroke="#277297"></path><path d="M213 415L190 513L273 468Z" fill="#00101c" stroke="#00101c"></path><path d="M99 399L213 415L207 274Z" fill="#1d4e6b" stroke="#1d4e6b"></path><path d="M419 0L278 0L405 93Z" fill="#19435d" stroke="#19435d"></path><path d="M76 106L118 173L178 112Z" fill="#297ea6" stroke="#297ea6"></path><path d="M178 112L118 173L199 180Z" fill="#0c2435" stroke="#0c2435"></path><path d="M669 0L573 0L628 100Z" fill="#081a28" stroke="#081a28"></path><path d="M628 100L573 0L492 105Z" fill="#00101c" stroke="#00101c"></path><path d="M67 317L99 399L207 274Z" fill="#0c2435" stroke="#0c2435"></path><path d="M762 375L762 268L725 321Z" fill="#19435d" stroke="#19435d"></path><path d="M725 321L762 268L717 193Z" fill="#00101c" stroke="#00101c"></path><path d="M190 513L262 600L273 468Z" fill="#0c2435" stroke="#0c2435"></path><path d="M812 491L733 437L666 471Z" fill="#0c2435" stroke="#0c2435"></path><path d="M666 471L733 437L633 383Z" fill="#1d4e6b" stroke="#1d4e6b"></path><path d="M778 91L688 65L717 193Z" fill="#19435d" stroke="#19435d"></path><path d="M717 193L688 65L628 100Z" fill="#1d4e6b" stroke="#1d4e6b"></path><path d="M118 173L67 317L207 274Z" fill="#0c2435" stroke="#0c2435"></path><path d="M733 437L762 375L633 383Z" fill="#081a28" stroke="#081a28"></path><path d="M900 277L776 223L762 268Z" fill="#246688" stroke="#246688"></path><path d="M762 268L776 223L717 193Z" fill="#297ea6" stroke="#297ea6"></path><path d="M0 435L111 492L99 399Z" fill="#277297" stroke="#277297"></path><path d="M99 399L111 492L213 415Z" fill="#081a28" stroke="#081a28"></path><path d="M190 513L190 600L262 600Z" fill="#277297" stroke="#277297"></path><path d="M490 600L632 600L500 499Z" fill="#246688" stroke="#246688"></path><path d="M278 0L167 0L178 112Z" fill="#081a28" stroke="#081a28"></path><path d="M0 227L0 332L67 317Z" fill="#1d4e6b" stroke="#1d4e6b"></path><path d="M799 0L669 0L688 65Z" fill="#205a7a" stroke="#205a7a"></path><path d="M688 65L669 0L628 100Z" fill="#112e42" stroke="#112e42"></path><path d="M111 492L190 600L190 513Z" fill="#15384f" stroke="#15384f"></path><path d="M112 0L76 106L178 112Z" fill="#081a28" stroke="#081a28"></path><path d="M776 223L778 91L717 193Z" fill="#0c2435" stroke="#0c2435"></path><path d="M632 600L687 600L666 471Z" fill="#00101c" stroke="#00101c"></path><path d="M733 437L812 491L762 375Z" fill="#15384f" stroke="#15384f"></path><path d="M67 317L0 332L99 399Z" fill="#1d4e6b" stroke="#1d4e6b"></path><path d="M0 227L67 317L118 173Z" fill="#19435d" stroke="#19435d"></path><path d="M167 0L112 0L178 112Z" fill="#205a7a" stroke="#205a7a"></path><path d="M0 89L0 227L76 106Z" fill="#297ea6" stroke="#297ea6"></path><path d="M76 106L0 227L118 173Z" fill="#277297" stroke="#277297"></path><path d="M0 332L0 435L99 399Z" fill="#297ea6" stroke="#297ea6"></path><path d="M111 492L81 600L190 600Z" fill="#112e42" stroke="#112e42"></path><path d="M687 600L812 491L666 471Z" fill="#205a7a" stroke="#205a7a"></path><path d="M762 375L900 277L762 268Z" fill="#1d4e6b" stroke="#1d4e6b"></path><path d="M900 112L799 0L778 91Z" fill="#0c2435" stroke="#0c2435"></path><path d="M0 435L0 476L111 492Z" fill="#246688" stroke="#246688"></path><path d="M0 476L81 600L111 492Z" fill="#246688" stroke="#246688"></path><path d="M0 0L0 89L76 106Z" fill="#19435d" stroke="#19435d"></path><path d="M900 112L778 91L776 223Z" fill="#246688" stroke="#246688"></path><path d="M778 91L799 0L688 65Z" fill="#00101c" stroke="#00101c"></path><path d="M900 403L900 277L762 375Z" fill="#297ea6" stroke="#297ea6"></path><path d="M900 277L900 215L776 223Z" fill="#1d4e6b" stroke="#1d4e6b"></path><path d="M812 491L900 403L762 375Z" fill="#19435d" stroke="#19435d"></path><path d="M687 600L815 600L812 491Z" fill="#15384f" stroke="#15384f"></path><path d="M812 491L900 517L900 403Z" fill="#246688" stroke="#246688"></path><path d="M112 0L0 0L76 106Z" fill="#297ea6" stroke="#297ea6"></path><path d="M900 215L900 112L776 223Z" fill="#112e42" stroke="#112e42"></path><path d="M0 476L0 600L81 600Z" fill="#205a7a" stroke="#205a7a"></path><path d="M815 600L900 517L812 491Z" fill="#15384f" stroke="#15384f"></path><path d="M900 112L900 0L799 0Z" fill="#1d4e6b" stroke="#1d4e6b"></path><path d="M815 600L900 600L900 517Z" fill="#297ea6" stroke="#297ea6"></path></g></svg>